<?xml version="1.0" ?><svg enable-background="new 0 0 24 24" id="Layer_1" version="1.1" viewBox="0 0 24 24" xml:space="preserve" xmlns="http://www.w3.org/2000/svg" xmlns:xlink="http://www.w3.org/1999/xlink"><g><path d="M10.5,1h-6C2.5703125,1,1,2.5703125,1,4.5v15C1,21.4296875,2.5703125,23,4.5,23h6   c0.2763672,0,0.5-0.2236328,0.5-0.5v-21C11,1.2236328,10.7763672,1,10.5,1z M6,10c-1.3789063,0-2.5-1.121582-2.5-2.5   S4.6210938,5,6,5s2.5,1.121582,2.5,2.5S7.3789063,10,6,10z" fill="#303C42"/><path d="M19.5,1h-6C13.2236328,1,13,1.2236328,13,1.5v21c0,0.2763672,0.2236328,0.5,0.5,0.5h6   c1.9296875,0,3.5-1.5703125,3.5-3.5v-15C23,2.5703125,21.4296875,1,19.5,1z M18,16c-1.3789063,0-2.5-1.121582-2.5-2.5   S16.6210938,11,18,11s2.5,1.121582,2.5,2.5S19.3789063,16,18,16z" fill="#303C42"/></g><g/><g/><g/><g/><g/><g/><g/><g/><g/><g/><g/><g/><g/><g/><g/></svg>