<?xml version="1.0" ?><svg enable-background="new 0 0 24 24" id="Layer_1" version="1.1" viewBox="0 0 24 24" xml:space="preserve" xmlns="http://www.w3.org/2000/svg" xmlns:xlink="http://www.w3.org/1999/xlink"><path d="M23.5,2.9775455c-0.1523438,0-3.7641602,0.0361714-6.3842773,3.1830876  c-0.1240234,0.1495738-0.1508789,0.3573151-0.0683594,0.5327954C17.1293945,6.8693976,17.3061523,6.9818225,17.5,6.9818225  h0.2788086c-0.5917969,1.6233163-2.0136719,5.7693458-2.2460938,8.7339382  C14.96875,15.4650049,14.1689453,15.1482601,13.5,15.033391V6.0413651c0.2382813,0.0513244,0.4946289,0.141264,0.6464844,0.293282  c0.171875,0.1715698,0.440918,0.1955214,0.6381836,0.0576787c0.1987305-0.1378427,0.2705078-0.398375,0.1704102-0.618825  l-2.5-5.5058813c-0.1621094-0.3568264-0.7480469-0.3568264-0.9101563,0l-2.5,5.5058813  C8.9448242,5.9939508,9.0166016,6.2544832,9.215332,6.3923259C9.4135742,6.5301685,9.6835938,6.506217,9.8535156,6.3346472  C10.0053711,6.1826291,10.2617188,6.0926895,10.5,6.0413651v8.9920254c-0.6689453,0.1148691-1.46875,0.4316139-2.0327148,0.6823702  c-0.2324219-2.9645929-1.6542969-7.1106224-2.2460938-8.7339382H6.5c0.1938477,0,0.3706055-0.1124249,0.4526367-0.288394  c0.0825195-0.1754804,0.0556641-0.3832216-0.0683594-0.5327954C4.2641602,3.0137169,0.6523438,2.9775455,0.5,2.9775455  c-0.222168,0-0.4179688,0.14713-0.4799805,0.3607371c-0.0620117,0.2136068,0.0239258,0.4423668,0.2114258,0.5621238  c5.215332,3.3223963,5.7641602,15.4921341,5.769043,15.6148243c0.0073242,0.1857452,0.1171875,0.3524265,0.2851563,0.4321022  c0.1674805,0.0796738,0.3662109,0.0601215,0.5141602-0.051815C8.1088867,18.913023,9.6660156,18.3743629,10.5,18.1363144v5.3631516  C10.5,23.7761288,10.7236328,24,11,24h2c0.2763672,0,0.5-0.2238712,0.5-0.5005341v-5.3636398  c0.8330078,0.2370701,2.387207,0.7742653,3.7001953,1.7596912c0.1469727,0.1119366,0.3457031,0.1310005,0.5141602,0.051815  c0.1679688-0.0796757,0.277832-0.246357,0.2851563-0.4321022c0.0048828-0.1226902,0.5537109-12.2924271,5.769043-15.6148243  c0.1875-0.1197569,0.2734375-0.3485169,0.2114258-0.5621238C23.9179688,3.1246755,23.722168,2.9775455,23.5,2.9775455z" fill="#303C42"/><g/><g/><g/><g/><g/><g/><g/><g/><g/><g/><g/><g/><g/><g/><g/></svg>