<?xml version="1.0" ?><svg enable-background="new 0 0 24 24" id="Layer_1" version="1.1" viewBox="0 0 24 24" xml:space="preserve" xmlns="http://www.w3.org/2000/svg" xmlns:xlink="http://www.w3.org/1999/xlink"><path d="M12,1C5.3828125,1,0,5.9345703,0,12c0,2.6982422,1.0664063,5.2646484,3.0136719,7.2792969  l-2.8671875,2.8671875c-0.1425781,0.1425781-0.1855469,0.3583984-0.1083984,0.5449219S0.2978516,23,0.5,23H12  c6.6171875,0,12-4.9345703,12-11S18.6171875,1,12,1z M6,13c0.2753906,0,0.5-0.2246094,0.5-0.5C6.2236328,12.5,6,12.2763672,6,12  s0.2236328-0.5,0.5-0.5H7c0.2763672,0,0.5,0.2236328,0.5,0.5v0.5C7.5,13.3271484,6.8271484,14,6,14s-1.5-0.6728516-1.5-1.5v-2  C4.5,9.6728516,5.1728516,9,6,9s1.5,0.6728516,1.5,1.5C7.5,10.7763672,7.2763672,11,7,11s-0.5-0.2236328-0.5-0.5  C6.5,10.2246094,6.2753906,10,6,10s-0.5,0.2246094-0.5,0.5v2C5.5,12.7753906,5.7246094,13,6,13z M10.5,11  c0.2763672,0,0.5,0.2236328,0.5,0.5S10.7763672,12,10.5,12h-1v1H11c0.2763672,0,0.5,0.2236328,0.5,0.5S11.2763672,14,11,14H9  c-0.2763672,0-0.5-0.2236328-0.5-0.5v-4C8.5,9.2236328,8.7236328,9,9,9h2c0.2763672,0,0.5,0.2236328,0.5,0.5S11.2763672,10,11,10  H9.5v1H10.5z M14.5,11c0.2763672,0,0.5,0.2236328,0.5,0.5S14.7763672,12,14.5,12h-1v1H15c0.2763672,0,0.5,0.2236328,0.5,0.5  S15.2763672,14,15,14h-2c-0.2763672,0-0.5-0.2236328-0.5-0.5v-4C12.5,9.2236328,12.7236328,9,13,9h2  c0.2763672,0,0.5,0.2236328,0.5,0.5S15.2763672,10,15,10h-1.5v1H14.5z M19.5,10.5c0,0.3837891-0.1445313,0.734375-0.3828125,1  C19.3554688,11.765625,19.5,12.1162109,19.5,12.5v1c0,0.2763672-0.2236328,0.5-0.5,0.5s-0.5-0.2236328-0.5-0.5v-1  c0-0.2753906-0.2246094-0.5-0.5-0.5h-0.5v1.5c0,0.2763672-0.2236328,0.5-0.5,0.5s-0.5-0.2236328-0.5-0.5v-4  C16.5,9.2236328,16.7236328,9,17,9s0.5,0.2236328,0.5,0.5V11H18c0.2753906,0,0.5-0.2246094,0.5-0.5v-1  C18.5,9.2236328,18.7236328,9,19,9s0.5,0.2236328,0.5,0.5V10.5z" fill="#303C42"/><g/><g/><g/><g/><g/><g/><g/><g/><g/><g/><g/><g/><g/><g/><g/></svg>