<?xml version="1.0" ?><svg enable-background="new 0 0 24 24" id="Layer_1" version="1.1" viewBox="0 0 24 24" xml:space="preserve" xmlns="http://www.w3.org/2000/svg" xmlns:xlink="http://www.w3.org/1999/xlink"><g><path d="M8.5,15.000164c-0.5512695,0-1,0.4487305-1,1s0.4487305,1,1,1s1-0.4487305,1-1   S9.0512695,15.000164,8.5,15.000164z M8.8342896,15.8805351c-0.1380615,0-0.25-0.1119385-0.25-0.25s0.1119385-0.25,0.25-0.25   c0.1381226,0,0.25,0.1119385,0.25,0.25S8.9724121,15.8805351,8.8342896,15.8805351z" fill="#303C42"/><path d="M15.5,15.000164c-0.5512695,0-1,0.4487305-1,1s0.4487305,1,1,1s1-0.4487305,1-1   S16.0512695,15.000164,15.5,15.000164z M15.8342896,15.8805351c-0.1380615,0-0.25-0.1119385-0.25-0.25s0.1119385-0.25,0.25-0.25   c0.1381226,0,0.25,0.1119385,0.25,0.25S15.9724121,15.8805351,15.8342896,15.8805351z" fill="#303C42"/><path d="M20.7773438,4.5841489l-1.5-1.0000002c-0.1972656-0.1323242-0.4614258-0.105957-0.6308594,0.0625   l-0.975647,0.9756472c0.171936-0.56427,0.4664917-1.1958621,0.8451538-1.5235598   c0.2061157,0.1055908,0.4243164,0.1768188,0.6505127,0.1768188c0.3696289,0,0.7392578-0.140625,1.0205078-0.421875   c0.4316406-0.4316406,0.706543-1.7270508,0.8046875-2.2636719c0.0297852-0.1616211-0.0219727-0.3271484-0.1381836-0.4433594   s-0.2827148-0.1689453-0.4433594-0.1381836c-0.5366211,0.0981445-1.8320313,0.3730469-2.2636719,0.8046875   c-0.4189453,0.4189453-0.5236816,1.0331421-0.3186035,1.552063c-0.4487915,0.4036255-0.7683105,1.0005493-0.9844971,1.5838013   l-0.3692627-1.1070557c-0.0566406-0.1699219-0.2001953-0.296875-0.3759766-0.3320313l-2.5-0.5   c-0.2495117-0.0522461-0.4926758,0.0927734-0.5722656,0.3320313L12.28125,4.5743833l-0.9277344-0.9277346   c-0.1337891-0.1333008-0.3320313-0.1811523-0.5117188-0.1206055l-1.5,0.5000002   C9.2504883,4.0563169,9.1699219,4.1124692,9.109375,4.1876645L8.5892944,4.837872   c-0.1956177-0.2532349-0.4142456-0.5997925-0.5211792-0.95105C8.6140137,3.6622736,9,3.1260798,9,2.5001643   c0-0.6391602-0.7612305-1.8100586-1.0883789-2.2841797c-0.1875-0.2705078-0.6357422-0.2705078-0.8232422,0   C6.7612305,0.6901057,6,1.8610041,6,2.5001643C6,3.1670344,6.4403076,3.7269709,7.0432129,3.92149   c0.1452637,0.7436526,0.6262817,1.390137,0.9064331,1.7160647L7.4584961,6.2516294L5.8535156,4.6466489   C5.6777344,4.4703794,5.3989258,4.4503598,5.2001953,4.6002622l-2,1.5C3.0742188,6.1945004,3,6.3429379,3,6.5001645   c0,0.065918,0.0063477,1.6303706,0.5527344,2.7236323c0.6518555,1.3037109,0.8100586,3.03125,0.9775391,4.8598633   c0.1088867,1.1870117,0.2211914,2.4140625,0.4829102,3.5307617C6.0200195,21.9112968,8.3051758,24.000164,12,24.000164   s5.9799805-2.0888672,6.9868164-6.3857422c0.2617188-1.1166992,0.3740234-2.34375,0.4829102-3.5307617   c0.1674805-1.8286133,0.3256836-3.5561523,0.9775391-4.8598633C20.9936523,8.1305351,21,6.5660825,21,6.5001645v-1.5   C21,4.8331723,20.9165039,4.6769223,20.7773438,4.5841489z M8.5,18.000164c-1.6396484,0-2.4243164-1.7236328-2.4570313-1.796875   c-0.0571289-0.1293945-0.0571289-0.2768555,0-0.40625C6.0756836,15.7237968,6.8603516,14.000164,8.5,14.000164   s2.4243164,1.7236328,2.4570313,1.796875c0.0571289,0.1293945,0.0571289,0.2768555,0,0.40625   C10.9243164,16.2765312,10.1396484,18.000164,8.5,18.000164z M11.999939,21.500164   c-0.8283081,0-1.499939-0.5608521-1.499939-0.920166c0-0.1796875,0.7501831,0,1.5002441,0   c0.749939,0.000061,1.4997559-0.1796265,1.4997559,0C13.5,20.939312,12.8283691,21.500164,11.999939,21.500164z    M17.9570313,16.203289C17.9243164,16.2765312,17.1396484,18.000164,15.5,18.000164s-2.4243164-1.7236328-2.4570313-1.796875   c-0.0571289-0.1293945-0.0571289-0.2768555,0-0.40625c0.0327148-0.0732422,0.8173828-1.796875,2.4570313-1.796875   s2.4243164,1.7236328,2.4570313,1.796875C18.0141602,15.9264336,18.0141602,16.0738945,17.9570313,16.203289z" fill="#303C42"/></g><g/><g/><g/><g/><g/><g/><g/><g/><g/><g/><g/><g/><g/><g/><g/></svg>