<?xml version="1.0" ?><svg enable-background="new 0 0 24 24" id="Layer_1" version="1.1" viewBox="0 0 24 24" xml:space="preserve" xmlns="http://www.w3.org/2000/svg" xmlns:xlink="http://www.w3.org/1999/xlink"><path d="M23.9384766,22.2591076l-11.5-21.0186596c-0.1757813-0.3205972-0.7011719-0.3205972-0.8769531,0  l-11.5,21.0186596c-0.0849609,0.1549225-0.081543,0.3435669,0.0083008,0.4955578S0.3232422,23,0.5,23h23  c0.1767578,0,0.340332-0.0933437,0.4301758-0.2453346S24.0234375,22.4140301,23.9384766,22.2591076z M11.5,8.4136963  c-1.1998291,0.0825195-2.3184204,0.454895-3.2905884,1.0491943L11.5,3.4540405V8.4136963z M11.5,9.4136963v12.560791  c-3.2416382-0.2582397-5.8017578-2.9732056-5.8017578-6.2801514S8.2583618,9.6719971,11.5,9.4136963z M12.5,9.413269  c3.2453003,0.2545776,5.8095703,2.9714966,5.8095703,6.2810669s-2.56427,6.026001-5.8095703,6.2805786V9.413269z M12.5,8.4133301  V3.4540405l3.2866821,6.001709C14.8151245,8.8643188,13.697998,8.4943848,12.5,8.4133301z M4.706604,15.8592529  C4.7655029,18.4788208,6.2077637,20.7579956,8.3322144,22H1.34375L4.706604,15.8592529z M15.6755981,22  c2.1209106-1.2399292,3.5615234-3.5136108,3.624939-6.1276855L22.65625,22H15.6755981z" fill="#303C42"/><g/><g/><g/><g/><g/><g/><g/><g/><g/><g/><g/><g/><g/><g/><g/></svg>