<?xml version="1.0" ?><svg enable-background="new 0 0 24 24" id="Layer_1" version="1.1" viewBox="0 0 24 24" xml:space="preserve" xmlns="http://www.w3.org/2000/svg" xmlns:xlink="http://www.w3.org/1999/xlink"><path d="M20.5,3h-4C16.2236328,3,16,3.2236328,16,3.5v1.0043335  c-0.3545532-0.210022-0.5513306-1.2248535-0.5527344-1.2279663C15.3623047,3.1069336,15.1894531,3,15,3H9  C8.8105469,3,8.6376953,3.1069336,8.5527344,3.2763672C8.4030762,3.5755005,8.1937866,4.3970337,8,4.5v-1  C8,3.2236328,7.7763672,3,7.5,3h-4C1.5703125,3,0,4.5703125,0,6.5v11C0,19.4296875,1.5703125,21,3.5,21h17  c1.9296875,0,3.5-1.5703125,3.5-3.5v-11C24,4.5703125,22.4296875,3,20.5,3z M21,9c0.276123,0,0.5,0.2238159,0.5,0.5  c0,0.276123-0.223877,0.5-0.5,0.5s-0.5-0.223877-0.5-0.5C20.5,9.2238159,20.723877,9,21,9z M20.5,8.5  C20.5,8.776123,20.276123,9,20,9s-0.5-0.223877-0.5-0.5C19.5,8.2238159,19.723877,8,20,8S20.5,8.2238159,20.5,8.5z M20,10  c0.276123,0,0.5,0.2238159,0.5,0.5c0,0.276123-0.223877,0.5-0.5,0.5s-0.5-0.223877-0.5-0.5C19.5,10.2238159,19.723877,10,20,10z   M19,10c-0.276123,0-0.5-0.223877-0.5-0.5C18.5,9.2238159,18.723877,9,19,9s0.5,0.2238159,0.5,0.5C19.5,9.776123,19.276123,10,19,10  z M18.5,5c0-0.2763672,0.2236328-0.5,0.5-0.5s0.5,0.2236328,0.5,0.5C19.7763672,5,20,5.2236328,20,5.5S19.7763672,6,19.5,6  c0,0.2763672-0.2236328,0.5-0.5,0.5S18.5,6.2763672,18.5,6C18.2236328,6,18,5.7763672,18,5.5S18.2236328,5,18.5,5z M3,15  c-0.276123,0-0.5-0.223877-0.5-0.5C2.5,14.2238159,2.723877,14,3,14s0.5,0.2238159,0.5,0.5C3.5,14.776123,3.276123,15,3,15z M4,16  c-0.276123,0-0.5-0.223877-0.5-0.5C3.5,15.2238159,3.723877,15,4,15s0.5,0.2238159,0.5,0.5C4.5,15.776123,4.276123,16,4,16z   M3.5,13.5C3.5,13.2238159,3.723877,13,4,13s0.5,0.2238159,0.5,0.5C4.5,13.776123,4.276123,14,4,14S3.5,13.776123,3.5,13.5z M5,15  c-0.276123,0-0.5-0.223877-0.5-0.5C4.5,14.2238159,4.723877,14,5,14s0.5,0.2238159,0.5,0.5C5.5,14.776123,5.276123,15,5,15z M4,12  c-1.1025391,0-2-0.8969727-2-2s0.8974609-2,2-2s2,0.8969727,2,2S5.1025391,12,4,12z M5.5,6h-1C4.2236328,6,4,5.7763672,4,5.5  S4.2236328,5,4.5,5h1C5.7763672,5,6,5.2236328,6,5.5S5.7763672,6,5.5,6z M20,16c-1.1025391,0-2-0.8969727-2-2s0.8974609-2,2-2  s2,0.8969727,2,2S21.1025391,16,20,16z" fill="#303C42"/><g/><g/><g/><g/><g/><g/><g/><g/><g/><g/><g/><g/><g/><g/><g/></svg>