<?xml version="1.0" ?><svg enable-background="new 0 0 24 24" id="Layer_1" version="1.1" viewBox="0 0 24 24" xml:space="preserve" xmlns="http://www.w3.org/2000/svg" xmlns:xlink="http://www.w3.org/1999/xlink"><path d="M12,0C5.3833008,0,0,5.3833008,0,12s5.3833008,12,12,12s12-5.3833008,12-12S18.6166992,0,12,0z M23,12  c0,0.1687622-0.0177612,0.3330688-0.0253296,0.5h-5c-0.0757446,0.9119263-0.3568115,1.7645264-0.7958984,2.515625  l4.0984497,2.869873c-0.1795044,0.2819214-0.3717041,0.5540771-0.5754395,0.8178101l-4.09375-2.8666382  c-0.5670166,0.6798706-1.2835083,1.2281494-2.0956421,1.6046753l1.7146606,4.7114258  c-0.3063354,0.1279907-0.6189575,0.2438354-0.9385376,0.3441772l-1.715332-4.7132568C13.0708618,17.9205322,12.545105,18,12,18  s-1.0708618-0.0794678-1.5731812-0.2163086l-1.715332,4.7132568c-0.3195801-0.1003418-0.6322021-0.2161865-0.9385376-0.3441772  l1.7146606-4.7114258c-0.8121338-0.3765259-1.5286255-0.9248047-2.0956421-1.6046753l-4.09375,2.8666382  c-0.2037354-0.2637329-0.3959351-0.5358887-0.5754395-0.8178101l4.0984497-2.869873  C6.3821411,14.2645264,6.1010742,13.4119263,6.0253296,12.5h-5C1.0177612,12.3330688,1,12.1687622,1,12  s0.0177612-0.3330688,0.0253296-0.5h5c0.0757446-0.9119263,0.3568115-1.7645264,0.7958984-2.515625L2.7227783,6.114502  c0.1795044-0.2819214,0.3717041-0.5540771,0.5754395-0.8178101l4.09375,2.8666382  c0.5670166-0.6798706,1.2835083-1.2281494,2.0956421-1.6046753L7.7729492,1.847229  c0.3063354-0.1279907,0.6189575-0.2438354,0.9385376-0.3441772l1.715332,4.7132568C10.9291382,6.0794678,11.454895,6,12,6  s1.0708618,0.0794678,1.5731812,0.2163086l1.715332-4.7132568c0.3195801,0.1003418,0.6322021,0.2161865,0.9385376,0.3441772  l-1.7146606,4.7114258c0.8121338,0.3765259,1.5286255,0.9248047,2.0956421,1.6046753l4.09375-2.8666382  c0.2037354,0.2637329,0.3959351,0.5358887,0.5754395,0.8178101L17.178772,8.984375  c0.4390869,0.7510986,0.7201538,1.6036987,0.7958984,2.515625h5C22.9822388,11.6669312,23,11.8312378,23,12z" fill="#303C42"/><g/><g/><g/><g/><g/><g/><g/><g/><g/><g/><g/><g/><g/><g/><g/></svg>