<?xml version="1.0" ?><svg enable-background="new 0 0 24 24" id="Layer_1" version="1.1" viewBox="0 0 24 24" xml:space="preserve" xmlns="http://www.w3.org/2000/svg" xmlns:xlink="http://www.w3.org/1999/xlink"><path d="M18.0800629,12.0001392l4.8510742-8.2460938c0.1083984-0.1845703,0.0874023-0.4179688-0.0527344-0.5800781  c-0.1396484-0.1630859-0.3681641-0.2177734-0.5659237-0.1376953l-20.9999981,8.5  c-0.1889611,0.0771484-0.3124964,0.2597656-0.3124964,0.4638672s0.1235352,0.3867188,0.3124964,0.4638672l20.9999981,8.5  c0.0605526,0.0244141,0.1245174,0.0361328,0.1875057,0.0361328c0.1420898,0,0.2817383-0.0605469,0.378418-0.1738281  c0.1401367-0.1621094,0.1611328-0.3955078,0.0527344-0.5800781L18.0800629,12.0001392z M16.6933441,14.0733814l0.3378906,1.1455078  l-5.781251-2.46875L16.6933441,14.0733814z M16.9999847,11.5001392l-7.218751,0.25l7.218751-2.5195313V11.5001392z" fill="#303C42"/><g/><g/><g/><g/><g/><g/><g/><g/><g/><g/><g/><g/><g/><g/><g/></svg>