<?xml version="1.0" ?><svg enable-background="new 0 0 24 24" id="Layer_1" version="1.1" viewBox="0 0 24 24" xml:space="preserve" xmlns="http://www.w3.org/2000/svg" xmlns:xlink="http://www.w3.org/1999/xlink"><path d="M22.7587891,5.0722656c-0.0148926-0.0089722-10.5439453-5.0239258-10.5439453-5.0239258  c-0.1367188-0.0644531-0.2929688-0.0644531-0.4296875,0c0,0-10.5291138,5.0149536-10.5439453,5.0239258  C1.0917969,5.1625977,1,5.3251953,1,5.5v12c0,0.1791992,0.0957031,0.3452148,0.2519531,0.434082l10.496582,5.9980469  c0,0,0.0003052,0.0003662,0.0004883,0.0004883l0.0006714,0.0001831l0.0022583,0.0012817l0.0003662-0.0006104  C11.8287964,23.9772339,11.9142456,24,12,24c0.0859375,0,0.1708984-0.0219727,0.2480469-0.065918l10.5-6  C22.9042969,17.8452148,23,17.6791992,23,17.5v-12C23,5.3251953,22.9082031,5.1625977,22.7587891,5.0722656z M6,19.4956665  l-4-2.2857056v-4.8834229l4,2.0952148V19.4956665z M2.6185303,5.5213013L6.874939,3.4943848l3.961731,1.8864746L6.3914795,7.4976196  L2.6185303,5.5213013z M11.5,16.173645L7,13.8164063V8.9453735l4.5,2.3572998V16.173645z M12.5,17.3027344l4.5-2.3571777v5.1213379  l-4.5,2.5712891V17.3027344z M13.1633301,5.3808594l3.961731-1.8864746l4.2564087,2.0269165l-3.7729492,1.9763184  L13.1633301,5.3808594z M22,11.1972656l-4,2.0953369V8.4215698l4-2.0953979V11.1972656z" fill="#303C42"/><g/><g/><g/><g/><g/><g/><g/><g/><g/><g/><g/><g/><g/><g/><g/></svg>