<?xml version="1.0" ?><svg enable-background="new 0 0 24 24" id="Layer_1" version="1.1" viewBox="0 0 24 24" xml:space="preserve" xmlns="http://www.w3.org/2000/svg" xmlns:xlink="http://www.w3.org/1999/xlink"><path d="M22,3.5v-3C22,0.2236328,21.7763672,0,21.5,0h-19C2.2236328,0,2,0.2236328,2,0.5v3  C2,3.7763672,2.2236328,4,2.5,4h3.5097656C3.5,5.8671875,2,8.7978516,2,12s1.5,6.1328125,4.0097656,8H2.5  C2.2236328,20,2,20.2236328,2,20.5v3C2,23.7763672,2.2236328,24,2.5,24h19c0.2763672,0,0.5-0.2236328,0.5-0.5v-3  c0-0.2763672-0.2236328-0.5-0.5-0.5h-3.5097656C20.5,18.1328125,22,15.2021484,22,12s-1.5-6.1328125-4.0097656-8H21.5  C21.7763672,4,22,3.7763672,22,3.5z M19,12c0,3.8598633-3.140625,7-7,7s-7-3.1401367-7-7s3.140625-7,7-7S19,8.1401367,19,12z" fill="#303C42"/><g/><g/><g/><g/><g/><g/><g/><g/><g/><g/><g/><g/><g/><g/><g/></svg>