<?xml version="1.0" ?><svg enable-background="new 0 0 24 24" id="Layer_1" version="1.1" viewBox="0 0 24 24" xml:space="preserve" xmlns="http://www.w3.org/2000/svg" xmlns:xlink="http://www.w3.org/1999/xlink"><path d="M21,5h-3V3.5C18,3.2236328,17.7763672,3,17.5,3h-17C0.2236328,3,0,3.2236328,0,3.5V19  c0,1.1030273,0.8974609,2,2,2h14c1.1025391,0,2-0.8969727,2-2v-1h3c1.6542969,0,3-1.3457031,3-3V8C24,6.3457031,22.6542969,5,21,5z   M3,9.5v-3C3,6.2236328,3.2236328,6,3.5,6h3C6.7763672,6,7,6.2236328,7,6.5v3C7,9.7763672,6.7763672,10,6.5,10h-3  C3.2236328,10,3,9.7763672,3,9.5z M14,17.5c0,0.2763672-0.2236328,0.5-0.5,0.5h-2c-0.2763672,0-0.5-0.2236328-0.5-0.5V16H7v1.5  C7,17.7763672,6.7763672,18,6.5,18h-2C4.2236328,18,4,17.7763672,4,17.5v-5C4,12.2236328,4.2236328,12,4.5,12H7v-1.5  C7,10.2236328,7.2236328,10,7.5,10h3c0.2763672,0,0.5,0.2236328,0.5,0.5V12h2.5c0.2763672,0,0.5,0.2236328,0.5,0.5V17.5z M15,9.5  c0,0.2763672-0.2236328,0.5-0.5,0.5h-3C11.2236328,10,11,9.7763672,11,9.5v-3C11,6.2236328,11.2236328,6,11.5,6h3  C14.7763672,6,15,6.2236328,15,6.5V9.5z M21,8v7h-3V8H21z" fill="#303C42"/><g/><g/><g/><g/><g/><g/><g/><g/><g/><g/><g/><g/><g/><g/><g/></svg>