<?xml version="1.0" ?><svg enable-background="new 0 0 24 24" id="Layer_1" version="1.1" viewBox="0 0 24 24" xml:space="preserve" xmlns="http://www.w3.org/2000/svg" xmlns:xlink="http://www.w3.org/1999/xlink"><path d="M23.9474735,15.7154684c0.1210938-0.2448549,0.0224609-0.5380955-0.2197266-0.6637001  c-0.2421875-0.1251154-0.5410156-0.0293236-0.6708984,0.2096672c-0.0166016,0.0298128-0.4072266,0.7296791-1.5566406,0.7296791  c-0.9707031,0-1.8115234-1.2448044-2.0527344-1.7237635l-7.000001-14.0129652c-0.1699219-0.339181-0.7246094-0.339181-0.8945313,0  L4.5529418,14.2673512c-0.0087891,0.0171061-0.8945313,1.7252293-2.0527344,1.7252293  c-1.1494141,0-1.5400391-0.7008438-1.5527344-0.7243032c-0.1240234-0.2477875-0.4228516-0.3465118-0.6708984-0.2238398  c-0.2460938,0.1231613-0.3457031,0.4212885-0.2255859,0.6676102c0.0009766,0.0009775,0.0009766,0.001955,0.0019531,0.0034208  c0.0136719,0.0273695,1.3408203,2.7545023,0.046875,4.4811964c-0.1132813,0.1515083-0.1318359,0.354332-0.046875,0.5239239  c0.0849609,0.16959,0.2578125,0.2766228,0.4472656,0.2766228c0.0185547,0,1.8642578,0.0102634,3.2226563,0.9168644  c0.2519531,0.167635,0.4736328,0.3362484,0.6894531,0.4999733c1.078125,0.8156967,2.0966797,1.5859394,5.4902339,1.5859394  c0.2792969-0.0009766,0.5488281-0.1475964,0.5917969-0.4232426c0.0371094-0.2429008-0.1064453-0.4774933-0.3398438-0.5532455  c-0.0449219-0.0146618-4.4599605-1.4852619-3.6718745-4.397625c0.7636719-2.8190136,3.9238276-9.6480865,5.0595698-12.0634069  c1.3632813,2.3977261,5.2392588,9.3426285,5.9755869,12.0634069c0.7880859,2.9123631-3.6269541,4.3829632-3.671876,4.397625  c-0.2333984,0.0757523-0.3769531,0.3103447-0.3398438,0.5532455c0.0429688,0.2756462,0.3115234,0.4247093,0.5917969,0.4232426  c3.3935556,0,4.4121103-0.770731,5.4902353-1.5859394c0.2158203-0.1637249,0.4375-0.3323383,0.6894531-0.4999733  c1.3505859-0.9017143,3.2050781-0.9168644,3.2236328-0.9168644c0.1884766-0.0004902,0.3623047-0.1080112,0.4462891-0.277113  c0.0839844-0.16959,0.0664063-0.3719254-0.046875-0.5234337C22.6066532,18.4699707,23.9338017,15.7428379,23.9474735,15.7154684z" fill="#303C42"/><g/><g/><g/><g/><g/><g/><g/><g/><g/><g/><g/><g/><g/><g/><g/></svg>