<?xml version="1.0" ?><svg enable-background="new 0 0 24 24" id="Layer_1" version="1.1" viewBox="0 0 24 24" xml:space="preserve" xmlns="http://www.w3.org/2000/svg" xmlns:xlink="http://www.w3.org/1999/xlink"><g><path d="M18.4127808,5.9849243c-0.2684937,0.017395-0.4852295,0.2280884-0.4852295,0.4971313v0.9985352   c0,0.2835693,0.2410278,0.5209351,0.5241699,0.505127c1.4827881-0.0827026,2.6274414-0.5251465,3.407959-1.3187256   c1.1757813-1.1948242,1.1489258-2.8188477,1.1376953-3.512207L22.9954224,3c0-1.4907227-1.2255859-3-3.5678711-3   c-1.9550781,0-5.0967407,2.3872681-7.4337158,4.9135742C9.6581421,2.392334,6.5240479,0.0134888,4.5724487,0.0134888   c-2.3422852,0-3.5678711,1.5092773-3.5678711,3L1.0026245,3.1682739C0.991394,3.8616333,0.9645386,5.4856567,2.1403198,6.680481   c0.7805176,0.7936401,1.9251709,1.2360229,3.407959,1.3187866C5.8314209,8.0150146,6.0724487,7.77771,6.0724487,7.4940796   V6.4955444c0-0.269043-0.2167358-0.4797363-0.4852295-0.4971313C4.656311,5.9380493,3.9776611,5.6964111,3.5661011,5.2781372   C2.9782104,4.680481,2.9933472,3.7542114,3.0026245,3.2009888l0.0019531-0.1875c0-0.371582,0.3300781-1,1.5678711-1   c0.9195557,0,3.4816895,1.5912476,5.9192505,4.2261963c-3.2272949,3.4309082-5.3948975,6.9611816-5.4189453,7.0005493   c-0.0996094,0.1640625-0.0966797,0.3710938,0.0078125,0.5322266l6.5,10C11.6728516,23.9145508,11.8305664,24,12,24   s0.3271484-0.0854492,0.4194336-0.2275391l6.5-10c0.1044922-0.1611328,0.1074219-0.3681641,0.0078125-0.5322266   c-0.0241089-0.0394287-2.194458-3.5740967-5.4251709-7.0070801C15.9414673,3.5941162,18.5072021,2,19.4275513,2   c1.237793,0,1.5678711,0.628418,1.5678711,1l0.0019531,0.1875c0.0092773,0.5532227,0.0244141,1.4794922-0.5634766,2.0771484   C20.0223389,5.6828613,19.343689,5.9244995,18.4127808,5.9849243z M12.0004883,20.1342773l-4.7011719-6.6430664   C8.0581055,12.4360352,9.668457,10.6293945,12,8.2182617c2.3325195,2.4121094,3.9433594,4.21875,4.7006836,5.2729492   L12.0004883,20.1342773z" fill="#303C42"/></g><g/><g/><g/><g/><g/><g/><g/><g/><g/><g/><g/><g/><g/><g/><g/></svg>