<?xml version="1.0" ?><svg enable-background="new 0 0 24 24" id="Layer_1" version="1.1" viewBox="0 0 24 24" xml:space="preserve" xmlns="http://www.w3.org/2000/svg" xmlns:xlink="http://www.w3.org/1999/xlink"><g><circle cx="12" cy="9.0001764" fill="#303C42" r="3"/><path d="M17.999855,2.2921689c-1.9327106-1.7304688-4.4294119-2.5224609-7.0291462-2.234375   c-3.9337835,0.4375-7.2371655,3.5810547-7.8548708,7.4755859c-0.5024657,3.1669917,0.648957,6.2832026,3.0797381,8.3339844   c0.8476968,0.7158213,1.4683323,1.4287119,1.9156194,2.211915c0.6098928,1.0664063,1.070364,2.2128906,1.3696947,3.4072266   l0.1699305,0.6796875c0.2695436,1.0800781,1.235899,1.8339844,2.3487453,1.8339844s2.0792017-0.7539063,2.3487463-1.8339844   l0.1699305-0.6796875c0.2993307-1.1943359,0.7598019-2.3408203,1.3135395-3.328125l1.9917955-2.3076181   C19.8422298,14.1368952,21,11.6398249,21,9.0001764C21,6.4435363,19.9066849,3.9982235,17.999855,2.2921689z M19.9999523,9.0001764   c0,0.1679688-0.0169086,0.3334961-0.0274067,0.5h-4.0233259c-0.24928,1.9681396-1.9151926,3.5-3.9496536,3.5   s-3.7003727-1.5318604-3.9496527-3.5H4.029151c-0.0208139-0.3307495-0.0224619-0.6638184-0.0023804-1h4.0231428   c0.24928-1.9681392,1.9151926-3.4999995,3.9496527-3.4999995s3.7003736,1.5318604,3.9496536,3.4999995h4.0240583   C19.9837761,8.6666803,19.9999523,8.8323908,19.9999523,9.0001764z" fill="#303C42"/></g><g/><g/><g/><g/><g/><g/><g/><g/><g/><g/><g/><g/><g/><g/><g/></svg>