<?xml version="1.0" ?><svg enable-background="new 0 0 24 24" id="Layer_1" version="1.1" viewBox="0 0 24 24" xml:space="preserve" xmlns="http://www.w3.org/2000/svg" xmlns:xlink="http://www.w3.org/1999/xlink"><path d="M24,12c0-0.651001-0.4192505-1.2008057-1-1.4078979V2c0-1.1025391-0.8969727-2-2-2H3  C1.8969727,0,1,0.8974609,1,2v8.5921021C0.4192505,10.7991943,0,11.348999,0,12s0.4192505,1.2008057,1,1.4078979V22  c0,1.1025391,0.8969727,2,2,2h18c1.1030273,0,2-0.8974609,2-2v-8.5921021C23.5807495,13.2008057,24,12.651001,24,12z M20,15.5  c0,0.276123-0.223877,0.5-0.5,0.5S19,15.776123,19,15.5c0-0.2761841,0.223877-0.5,0.5-0.5S20,15.2238159,20,15.5z M19,16.5  c0,0.276123-0.223877,0.5-0.5,0.5S18,16.776123,18,16.5c0-0.2761841,0.223877-0.5,0.5-0.5S19,16.2238159,19,16.5z M12,1.5  c0.276123,0,0.5,0.2238159,0.5,0.5c0,0.276123-0.223877,0.5-0.5,0.5S11.5,2.276123,11.5,2C11.5,1.7238159,11.723877,1.5,12,1.5z   M4,3.5C4,3.2236328,4.2236328,3,4.5,3h15C19.7763672,3,20,3.2236328,20,3.5v5C20,8.7763672,19.7763672,9,19.5,9h-15  C4.2236328,9,4,8.7763672,4,8.5V3.5z M5.5,21H5v0.5C5,21.7763672,4.7763672,22,4.5,22S4,21.7763672,4,21.5V21H3.5  C3.2236328,21,3,20.7763672,3,20.5S3.2236328,20,3.5,20H4v-0.5C4,19.2236328,4.2236328,19,4.5,19S5,19.2236328,5,19.5V20h0.5  C5.7763672,20,6,20.2236328,6,20.5S5.7763672,21,5.5,21z M4.5,18C3.6728516,18,3,17.3271484,3,16.5S3.6728516,15,4.5,15  S6,15.6728516,6,16.5S5.3271484,18,4.5,18z M17,21.5c0,0.2763672-0.2236328,0.5-0.5,0.5h-9C7.2236328,22,7,21.7763672,7,21.5v-6  C7,15.2236328,7.2236328,15,7.5,15h9c0.2763672,0,0.5,0.2236328,0.5,0.5V21.5z M18.5,21c-0.276123,0-0.5-0.223877-0.5-0.5  c0-0.2761841,0.223877-0.5,0.5-0.5s0.5,0.2238159,0.5,0.5C19,20.776123,18.776123,21,18.5,21z M19.5,18  c-0.276123,0-0.5-0.223877-0.5-0.5c0-0.2761841,0.223877-0.5,0.5-0.5s0.5,0.2238159,0.5,0.5C20,17.776123,19.776123,18,19.5,18z   M20.5,17c-0.276123,0-0.5-0.223877-0.5-0.5c0-0.2761841,0.223877-0.5,0.5-0.5s0.5,0.2238159,0.5,0.5  C21,16.776123,20.776123,17,20.5,17z" fill="#303C42"/><g/><g/><g/><g/><g/><g/><g/><g/><g/><g/><g/><g/><g/><g/><g/></svg>