<?xml version="1.0" ?><svg enable-background="new 0 0 24 24" id="Layer_1" version="1.1" viewBox="0 0 24 24" xml:space="preserve" xmlns="http://www.w3.org/2000/svg" xmlns:xlink="http://www.w3.org/1999/xlink"><g><path d="M6,14c-0.2753906,0-0.5,0.2241211-0.5,0.5v2C5.5,16.7758789,5.7246094,17,6,17s0.5-0.2241211,0.5-0.5v-2   C6.5,14.2241211,6.2753906,14,6,14z" fill="#303C42"/><path d="M18,14h-0.5v1H18c0.2753906,0,0.5-0.2241211,0.5-0.5S18.2753906,14,18,14z" fill="#303C42"/><path d="M9.5,9V7.5C9.5,7.2241211,9.2753906,7,9,7S8.5,7.2241211,8.5,7.5V9H9.5z" fill="#303C42"/><path d="M22,3H2C0.8974609,3,0,3.8969727,0,5v14c0,1.1030273,0.8974609,2,2,2h20c1.1025391,0,2-0.8969727,2-2V5   C24,3.8969727,23.1025391,3,22,3z M3.5,9.5v-2C3.5,6.6728516,4.1728516,6,5,6s1.5,0.6728516,1.5,1.5C6.5,7.7763672,6.2763672,8,6,8   S5.5,7.7763672,5.5,7.5C5.5,7.2241211,5.2753906,7,5,7S4.5,7.2241211,4.5,7.5v2C4.5,9.7758789,4.7246094,10,5,10   s0.5-0.2241211,0.5-0.5C5.2236328,9.5,5,9.2763672,5,9s0.2236328-0.5,0.5-0.5H6c0.2763672,0,0.5,0.2236328,0.5,0.5v0.5   C6.5,10.3271484,5.8271484,11,5,11S3.5,10.3271484,3.5,9.5z M7.5,16.5C7.5,17.3271484,6.8271484,18,6,18s-1.5-0.6728516-1.5-1.5v-2   C4.5,13.6728516,5.1728516,13,6,13s1.5,0.6728516,1.5,1.5V16.5z M8,11c-0.2763672,0-0.5-0.2236328-0.5-0.5v-3   C7.5,6.6728516,8.1728516,6,9,6s1.5,0.6728516,1.5,1.5v3c0,0.2763672-0.2236328,0.5-0.5,0.5s-0.5-0.2236328-0.5-0.5V10h-1v0.5   C8.5,10.7763672,8.2763672,11,8,11z M11.5,16c0,0.0986328-0.0292969,0.1953125-0.0839844,0.2773438l-1,1.5   C10.3232422,17.9165039,10.1669922,18,10,18s-0.3232422-0.0834961-0.4160156-0.2226563l-1-1.5   C8.5292969,16.1953125,8.5,16.0986328,8.5,16v-2.5C8.5,13.2236328,8.7236328,13,9,13s0.5,0.2236328,0.5,0.5v2.3486328l0.5,0.75   l0.5-0.75V13.5c0-0.2763672,0.2236328-0.5,0.5-0.5s0.5,0.2236328,0.5,0.5V16z M14.5,15c0.2763672,0,0.5,0.2236328,0.5,0.5   S14.7763672,16,14.5,16h-1v1H15c0.2763672,0,0.5,0.2236328,0.5,0.5S15.2763672,18,15,18h-2c-0.2763672,0-0.5-0.2236328-0.5-0.5v-4   c0-0.2763672,0.2236328-0.5,0.5-0.5h2c0.2763672,0,0.5,0.2236328,0.5,0.5S15.2763672,14,15,14h-1.5v1H14.5z M16,11   c-0.2763672,0-0.5-0.2236328-0.5-0.5v-3C15.5,7.2241211,15.2753906,7,15,7s-0.5,0.2241211-0.5,0.5v3   c0,0.2763672-0.2236328,0.5-0.5,0.5s-0.5-0.2236328-0.5-0.5v-3C13.5,7.2241211,13.2753906,7,13,7s-0.5,0.2241211-0.5,0.5v3   c0,0.2763672-0.2236328,0.5-0.5,0.5s-0.5-0.2236328-0.5-0.5v-3C11.5,6.6728516,12.1728516,6,13,6   c0.3837891,0,0.734375,0.1450195,1,0.3828125C14.265625,6.1450195,14.6162109,6,15,6c0.8271484,0,1.5,0.6728516,1.5,1.5v3   C16.5,10.7763672,16.2763672,11,16,11z M19.5,16.5v1c0,0.2763672-0.2236328,0.5-0.5,0.5s-0.5-0.2236328-0.5-0.5v-1   c0-0.2758789-0.2246094-0.5-0.5-0.5h-0.5v1.5c0,0.2763672-0.2236328,0.5-0.5,0.5s-0.5-0.2236328-0.5-0.5v-4   c0-0.2763672,0.2236328-0.5,0.5-0.5h1c0.8271484,0,1.5,0.6728516,1.5,1.5c0,0.3837891-0.1445313,0.734375-0.3828125,1   C19.3554688,15.765625,19.5,16.1162109,19.5,16.5z M19.5,8C19.7763672,8,20,8.2236328,20,8.5S19.7763672,9,19.5,9h-1v1H20   c0.2763672,0,0.5,0.2236328,0.5,0.5S20.2763672,11,20,11h-2c-0.2763672,0-0.5-0.2236328-0.5-0.5v-4   C17.5,6.2236328,17.7236328,6,18,6h2c0.2763672,0,0.5,0.2236328,0.5,0.5S20.2763672,7,20,7h-1.5v1H19.5z" fill="#303C42"/></g><g/><g/><g/><g/><g/><g/><g/><g/><g/><g/><g/><g/><g/><g/><g/></svg>