<?xml version="1.0" ?><svg enable-background="new 0 0 24 24" id="Layer_1" version="1.1" viewBox="0 0 24 24" xml:space="preserve" xmlns="http://www.w3.org/2000/svg" xmlns:xlink="http://www.w3.org/1999/xlink"><path d="M16.3515625,0.7734375C15.6123047,0,14.1748047,0,12,0S8.3876953,0,7.6484375,0.7734375  C6.8554688,1.6025391,6,5.3974609,6,10.0830078c0,3.4267578,0.7011719,12.1923828,1.6611328,13.15625  C8.3828125,23.9648438,9.7119141,24,12,24s3.6171875-0.0351563,4.3388672-0.7607422  C17.2988281,22.2753906,18,13.5097656,18,10.0830078C18,4.8701172,17.1455078,1.6035156,16.3515625,0.7734375z   M16.9468708,12.2810326c-0.0457115,1.0669174-0.6378689,2.076169-1.6076155,2.5233755  C14.3755655,15.2488213,13.2397346,15.5,12,15.5c-1.239707,0-2.3754606-0.2511358-3.3391123-0.6955051  c-0.9697137-0.4471645-1.5618901-1.4563379-1.6076803-2.5232048c-0.0235438-0.548542-0.0394521-1.0846834-0.0467377-1.5994663  c0.3128791,0.5296679,0.7648273,1.0277262,1.3429861,1.4645281c0.2707663,0.204566,0.6236181,0.263649,0.9544258,0.1879692  C9.9578695,12.1847076,10.9721766,12,12,12c1.0253534,0,2.0372562,0.1838207,2.6913977,0.3332424  c0.3666143,0.083744,0.7449827-0.01828,1.0412769-0.2498579c0.53967-0.4217949,0.9633875-0.8975134,1.2608557-1.4018049  C16.9862461,11.1963654,16.9703712,11.7325077,16.9468708,12.2810326z M12,2c0.2763672,0,0.5,0.2236328,0.5,0.5v1  C12.5,3.7763672,12.2763672,4,12,4s-0.5-0.2236328-0.5-0.5v-1C11.5,2.2236328,11.7236328,2,12,2z M15,5c0.5517578,0,1,0.4482422,1,1  v4c0,0.5517578-0.4482422,1-1,1H9c-0.5517578,0-1-0.4482422-1-1V6c0-0.5517578,0.4482422-1,1-1H15z" fill="#303C42"/><g/><g/><g/><g/><g/><g/><g/><g/><g/><g/><g/><g/><g/><g/><g/></svg>