<?xml version="1.0" ?><svg enable-background="new 0 0 24 24" id="Layer_1" version="1.1" viewBox="0 0 24 24" xml:space="preserve" xmlns="http://www.w3.org/2000/svg" xmlns:xlink="http://www.w3.org/1999/xlink"><path d="M24,2.99998c0-1.1191406-0.9726563-2.6108398-1.0839844-2.7773438  c-0.1269531-0.1914063-0.3691406-0.2695313-0.5820313-0.1943359c-0.2158203,0.0761719-0.3525391,0.2890625-0.3320313,0.5170898  c0.2421875,2.6611328-1.3164063,3.4516602-2.9658203,4.2885742C17.6132813,5.5561323,16,6.3740034,16,8.49998  c0,1.0507813,0.2548828,1.621582,0.5019531,2.1728516C16.7578125,11.2460737,17,11.7870893,17,12.99998  c0,1.557312-0.7857666,2.3885498-1.2392578,2.7410889C14.8432617,14.6836958,13.5064087,13.99998,12,13.99998  c-1.5061646,0-2.8428955,0.6835938-3.760376,1.7406616C7.7889404,15.3894453,7,14.5574751,7,12.99998  c0-1.2128906,0.2421875-1.7539063,0.4980469-2.3271484C7.7451172,10.121562,8,9.5507612,8,8.49998  c0-2.1259766-1.6132813-2.9438477-3.0361328-3.6660156C3.3144531,3.9970503,1.7558594,3.2065229,1.9980469,0.5453901  c0.0205078-0.2280273-0.1162109-0.440918-0.3320313-0.5170898C1.4501953-0.0459185,1.2109375,0.0322065,1.0839844,0.2226362  C0.9726563,0.3891401,0,1.8808393,0,2.99998c0,0.9799805,0.0175781,1.1362305,0.421875,1.9594727  C0.2314453,5.2997847,0,5.9335737,0,6.99998c0,1.340332,0.9716797,2.3125,1.4570313,2.7138672  c-0.09375,0.8637695,0.1484375,2.2578125,1.5751953,3.1005859c0.1455688,0.696167,0.90979,2.2484741,4.5856323,3.8285513  C7.2365112,17.3485508,7,18.1432896,7,18.999979c0,2.7568359,2.2431641,5,5,5s5-2.2431641,5-5  c0-0.8568115-0.2366333-1.6516724-0.618042-2.3572998c3.6752319-1.5798941,4.4402466-3.1321402,4.5858154-3.8282461  c1.4257813-0.8427734,1.6689453-2.2368164,1.5751953-3.1005859C23.0283203,9.31248,24,8.340312,24,6.99998  c0-1.0664063-0.2314453-1.7001953-0.421875-2.0405273C23.9824219,4.1362104,24,3.9799604,24,2.99998z M12,21.999979  c-1.6542969,0-3-1.3457031-3-3c0-0.2763672,0.2236328-0.5,0.5-0.5s0.5,0.2236328,0.5,0.5c0,1.1030273,0.8974609,2,2,2  c0.2763672,0,0.5,0.2236328,0.5,0.5S12.2763672,21.999979,12,21.999979z" fill="#303C42"/><g/><g/><g/><g/><g/><g/><g/><g/><g/><g/><g/><g/><g/><g/><g/></svg>