<?xml version="1.0" ?><svg enable-background="new 0 0 24 24" id="Layer_1" version="1.1" viewBox="0 0 24 24" xml:space="preserve" xmlns="http://www.w3.org/2000/svg" xmlns:xlink="http://www.w3.org/1999/xlink"><g><path d="M22.5664063,11.7817383L19,7.3242188v-4.824707c0-0.9052734-0.6142578-1.7021484-1.4951172-1.9375   C15.4257813,0.0063477,12.1386719,0,12,0S8.5742188,0.0063477,6.4951172,0.5620117C5.6142578,0.7973633,5,1.5942383,5,2.4995117   v4.824707l-3.5664063,4.4580078C1.1542969,12.1318359,1,12.5712891,1,13.0195313C1,14.1113281,1.8886719,15,2.9804688,15   C3.7701416,15,4.5227661,14.6245117,5,13.9971924V15.5c0,0.9499512,0.3833618,1.8104248,1,2.4417114V22   c0,1.1030273,0.8974609,2,2,2h1c1.1025391,0,2-0.8969727,2-2v-3h2v3c0,1.1030273,0.8974609,2,2,2h1c1.1025391,0,2-0.8969727,2-2   v-4.0582886c0.6166382-0.6312866,1-1.4917603,1-2.4417114v-1.5028076C19.4772339,14.6245117,20.2298584,15,21.0195313,15   C22.1113281,15,23,14.1113281,23,13.0195313C23,12.5712891,22.8457031,12.1318359,22.5664063,11.7817383z M15,3   c0.5517578,0,1,0.4487305,1,1s-0.4482422,1-1,1s-1-0.4487305-1-1S14.4482422,3,15,3z M9,3c0.5517578,0,1,0.4487305,1,1   S9.5517578,5,9,5S8,4.5512695,8,4S8.4482422,3,9,3z M7,8c0-1.1030273,0.8974609-2,2-2h6c1.1025391,0,2,0.8969727,2,2v3   c0,1.1030273-0.8974609,2-2,2H9c-1.1025391,0-2-0.8969727-2-2V8z" fill="#303C42"/><path d="M9,12h6c0.5249023,0,0.9439697-0.4101563,0.9846802-0.9243164l-0.5686646-0.8530273   C15.3261719,10.0874023,15.1757813,10.0048828,15.0136719,10c-0.1552734,0.0078125-0.3164063,0.0698242-0.4140625,0.2001953   L13.5,11.6665039l-1.0996094-1.4663086c-0.1894531-0.2519531-0.6113281-0.2519531-0.8007813,0L10.5,11.6665039   l-1.0996094-1.4663086C9.3027344,10.0698242,9.1552734,10.0107422,8.9863281,10   c-0.1621094,0.0048828-0.3125,0.0874023-0.4023438,0.2226563l-0.5686646,0.8530273C8.0560303,11.5898438,8.4750977,12,9,12z" fill="#303C42"/><path d="M8.9863281,9c0.1660156,0.0024414,0.3164063-0.0698242,0.4140625-0.2001953L10.5,7.3334961   l1.0996094,1.4663086c0.1894531,0.2519531,0.6113281,0.2519531,0.8007813,0L13.5,7.3334961l1.0996094,1.4663086   C14.6943359,8.9262695,14.8427734,9,15,9c0.0048828,0,0.0087891,0,0.0136719,0   c0.1621094-0.0048828,0.3125-0.0874023,0.4023438-0.2226563l0.5686646-0.8530273C15.9439697,7.4101563,15.5249023,7,15,7H9   C8.4750977,7,8.0560303,7.4101563,8.0153198,7.9243164l0.5686646,0.8530273C8.6738281,8.9125977,8.8242188,8.9951172,8.9863281,9z" fill="#303C42"/></g><g/><g/><g/><g/><g/><g/><g/><g/><g/><g/><g/><g/><g/><g/><g/></svg>